<svg version="1" xmlns="http://www.w3.org/2000/svg" width="1082.667" height="1082.667" viewBox="0 0 812.000000 812.000000"><path d="M0 406v406h355.9l-.3-5.8c-.5-6.9-2.2-21.4-3.5-29.7-.9-5.6-1.5-9.7-4-30-1.5-11.5-2.9-32.4-3.7-52.5-.8-24.4 0-25.3 15.1-14 17.4 12.9 30.4 18.4 50.9 21.6 4.7.7 3.2 2.2-1.9 1.8-1.9-.2-3.7.1-4 .6-.9 1.4 1.3 2.2 3.2 1.2 1.2-.7 2.4-.4 4.5 1.1 2.4 1.8 4 2 14 1.8 6.2-.1 13-.6 15.3-1 13.1-2.7 27.6-7.9 38.1-13.7 8.5-4.8 8.4-3.1-.6 11.1-7 11.1-30.7 50.5-41.5 69-6.7 11.6-14.4 23.3-19 29-1.7 2.2-4 5.2-5 6.8l-1.7 2.7H812V0H0v406zM512 81.1c1.9 0 5.5.7 7.9 1.6 3.1 1.1 4.6 1.3 4.9.5.2-.7 2-.2 4.9 1.4 2.5 1.3 6 2.4 7.7 2.4 1.7 0 3.9.7 5 1.5 1.4 1.1 2.4 1.2 3.9.3 1.6-.8 2.3-.7 3.4.8.7 1 1.3 2.2 1.3 2.7 0 .4.4.6.9.2.6-.3 1.4.3 2 1.2.8 1.6 1.4 1.6 4.2.6 1.7-.7 3.6-1 4.2-.6.5.3 1.3-.1 1.8-.8.6-1.1 1.1-1.1 2.1-.1.9.9.9 1.2 0 1.2-.7 0-1.2.7-1.2 1.5 0 1.1 1.2 1.5 4.5 1.5 2.5 0 4.5.4 4.5.9 0 .4 2 1.6 4.4 2.5 3 1.1 5.1 2.8 6.4 5 1.3 2.2 3 3.5 5.1 3.9 1.7.4 3.1 1.1 3.1 1.6 0 .6-.6.8-1.4.5-2.3-.9-3.1 1.8-1.1 3.3 2.2 1.5 5.9 1.8 5 .3-1.1-1.8 1.3-1 4.2 1.4 1.5 1.3 3.8 2.6 5.1 3 1.2.4 2.2 1.1 2.2 1.6s.3 1.6.6 2.5c.6 1.6.5 1.6-2.4.1-4.4-2.2-5.6-2-3.8.6 2.8 4 1.7 3.9-2-.2-3.5-3.9-6.6-5.1-7.9-3-.4.6-1.7.4-3.5-.5-6.9-3.6-5.3-.7 6.1 10.6 9.8 9.8 10 10.1 9.7 14.1-.3 4.6-2.3 6.1-3.3 2.6-1.5-4.7-12.2-12.4-14.4-10.3-.3.4 1.3 2.2 3.7 4.1 2.3 2 4.2 4.2 4.2 5 0 2.3-2.9 2.8-5 .9-3.2-2.9-3.5-.9-.6 3.3 1.4 2.1 2.6 4.1 2.6 4.5 0 .4.9 1.6 2.1 2.8 2.6 2.6 1.8 3.6-1.3 1.5-5.8-4.1-3 1.2 4.7 8.7 4.6 4.5 6.7 8.4 4 7.3-2.7-1-1.6.7 4 5.9 3 2.8 5.5 5.6 5.5 6.2 0 .7-2.8-.7-6.2-3-6.9-4.7-11.7-7.1-22.3-11-6.5-2.4-15.5-4.2-15.5-3 0 .3.9 1.8 2.1 3.5 3.2 4.4 1.6 4.5-1.7.1-3.2-4.2-4.4-5.3-5.9-5.3-.7 0-.7.3 0 .8.6.4 2.3 2.5 3.9 4.6 2.2 3 2.9 4.9 2.7 7.7-.1 2.1.3 4 .9 4.4.5.3 1 1.9 1 3.4 0 1.6.7 3.4 1.5 4.1.8.7 1.5 1.8 1.5 2.5s1.7 3.9 3.8 7.1c6.8 10.5 10.3 16.6 10.4 18.3.3 3.6-.3 6.1-1.3 6.1-1.8 0-3.9 2.8-3.3 4.4.4 1 .1 1.6-.9 1.6-1.5 0-2.7 3.1-3.3 8.8-.4 4.3-1 5.1-3.4 4.5-1.7-.5-2 0-2 3 0 2-.4 3.8-.8 4.1-.4.2-.7 2.3-.5 4.6.1 2.2-.2 3.8-.7 3.5-.5-.3-2 0-3.5.7-1.8.8-2.4 1.6-1.9 2.7.3.9.7 4 .8 6.9.2 6.6-1.1 7.8-8.4 8.7-3.5.4-5 .3-4.2-.3.9-.6.3-.8-2-.7-4 .2-4.9 1.9-1.3 2.3 4.5.6 2.7 1.7-2.8 1.7-4.8 0-5.2.2-4.9 2.2.2 1.6-.2 2.3-1.3 2.3-1 0-1.5.7-1.3 1.7.2 1.1-.3 1.8-1.4 1.8-3 0-2.9 1.2.2 1.8 3.2.7 6 0 6-1.4 0-.5 1.1-.4 2.5.3 2.5 1.1 2.5 2.8-.1 2.8-.9 0-2.2.7-3 1.5-1.5 1.5-1.5 1.6.5 1.9.6 0 1.6.7 2.2 1.3 1.9 1.9 3.1 1.6 2.4-.6-.4-1.5.1-2.1 2.5-3 1.8-.6 2.9-1.5 2.5-2.1-1.1-1.7 2.2-1.1 3.6.7 1.2 1.5 1.2 1.6-.3 1-1.3-.5-1.8-.1-1.8 1.3 0 1.1.6 2 1.4 2 1.5 0 2.6 2.1 2.6 5 0 2.1 3.8 3.4 5.7 1.8 2-1.6 3.4 3.1 2.2 7.8-1.1 4.5-2 13.9-1.9 20.4 0 2.5-.5 6.2-1.1 8.3-.9 2.7-.9 4.3-.1 6.1 1.5 3.3-4.2 13.7-8.4 15.1-5.5 1.9-14.2 7.4-14.9 9.5-.3 1.1-1.4 2-2.3 2-.9 0-3.2 1.5-5.1 3.2-3.7 3.5-6.6 4.6-5.7 2.2.3-.8.1-1.4-.4-1.4-.6 0-1 .4-1 1 0 .5-1.2 1-2.7 1.1-2.4 0-2.5.1-.8.8 1.9.8 1.9.8-.2 1.5-1.2.4-3.1 1.8-4.2 3.2-1 1.3-2.3 2.4-2.7 2.4-.5.1-2.5 1.4-4.4 3-1.9 1.7-4.5 3-5.7 3-1.3 0-2.3.5-2.3 1.1 0 .6-.7.8-1.6.5-.9-.4-2.3-.1-3.1.6-.8.7-4.3 1.2-7.8 1.2-3.5.1-5.9.4-5.3.7.7.4.6.9-.2 1.4-.6.4-1.7 0-2.3-.8-.9-1.2-2.7-1.5-7.2-1.4-3.3.2-6.7 0-7.5-.4-4.7-2.3-10.7-4.9-11.3-4.9-.3 0-.4.8 0 1.7.5 1.4.1 1.3-1.9-.5-1.3-1.2-3.2-2.2-4.1-2.2-1 0-2-.7-2.3-1.5-.4-.8-1-1.5-1.5-1.5-1.1 0-5.9-4.5-5.9-5.5 0-.5-1.1-2.3-2.5-4.1-1.4-1.8-2.5-3.6-2.5-3.9 0-.4-1.6-2.9-3.5-5.5s-3.5-5.5-3.5-6.3c0-2.3-7.2-12.7-8.8-12.7-1.8 0-.6 3.9 1.9 6.3 1.1 1 1.9 2.7 1.9 3.7 0 1.1.5 2 1 2 .6 0 1 .4 1 1 0 .5-.9 1-2 1s-2 .4-2 .9-1.2 2.4-2.7 4.1c-2.5 3-3 3.2-7.4 2.6-5.2-.7-11.9-3.2-11.9-4.4 0-.4-2.6-2-5.7-3.5-4.1-1.9-7.8-2.8-12.7-3-6-.3-7.2-.1-9.6 2-1.5 1.2-3.8 2.3-5 2.3-1.1 0-1.9.4-1.6.8.2.4-.5.9-1.6.9-3.9.3-4.4 2.1-1.4 5.2 2.6 2.7 2.7 3.3 2.3 9.3-.3 3.6-.2 7.1.2 7.7.5.8 3.4 1.2 7.7 1.2 7.2 0 8.4.7 8.4 4.6 0 1.3.6 2.3 1.3 2.4.6 0-.3.5-2.2 1.1-4.7 1.3-16.3-.7-18.7-3.3-1.2-1.3-3.1-1.9-6.3-1.9-2.5 0-7.3-.7-10.6-1.4-3.3-.8-6.1-1.3-6.3-1.1-1.7 1.7 11.4 12.7 18.3 15.3 7.7 3 16.2 8 14.5 8.6-3.8 1.2-4.6 1.2-5.5 0-.5-.7-3.8-1.5-7.2-1.8-5.5-.4-6.6-.8-9.8-4.1-2.1-2-3.9-3.4-4.1-3.2-.4.4 2.6 7.6 4.5 10.7.5.8 1.7 3.4 2.7 5.8 1.1 2.7 2.5 4.4 3.9 4.8 2.9.7 5.8 5.9 5.1 8.9-.3 1.3-.1 2.7.4 3 .6.4.8 1 .5 1.5-.3.5.7 1.2 2.2 1.6 1.5.3 5.1 1.6 7.8 2.8 6.9 3.1 18.1 5.2 19.9 3.7.7-.6 2.7-.8 4.3-.5 3.8.7 7.5-1 6.6-3.2-.4-1 .2-1.7 1.6-2.1l2.1-.5-2.2-3.1-2.2-3 3 .7 2.9.6-3-2.7c-2.7-2.3-2.7-2.6-.8-2.1 2 .5 2.1.4 1.2-1.4-.6-1.1-.9-2.1-.7-2.4.4-.3 4.7-.3 23.1-.2 3.1 0 8-.1 10.9-.2 3.8-.2 5.5.2 6.3 1.4.7.9 1.9 1.6 2.8 1.6 1.6 0 7.5-5.2 9.2-8.3 1.6-2.7 5.5-1.2 5.5 2.2 0 3.1-1.9 6-6.9 10.7-3.9 3.6-6.2 4.1-10.4 2.1-2.1-1-2.5-1.7-2-3.7l.6-2.5-2.4 2c-1.3 1.1-2.8 2.5-3.4 3.1-3.9 4-12.8 9.4-15.7 9.4-3.2 0-5.6 3.1-6 7.7-.1.7-.5 1.3-1 1.3-.4 0-.8.7-.8 1.6 0 1.2-.6 1.5-2.6 1-2.3-.6-2.5-.4-1.9 1.5.5 1.6 0 2.8-2.5 5-1.7 1.6-3.5 2.9-4 2.9-1.4 0-8 4.1-8 5 0 .4-1.4 1-3.2 1.4-1.7.3-4 1.3-4.9 2.2-1.4 1.3-2.6 1.4-6.2.6-2.5-.5-5.1-.6-5.7-.2-.7.4-7.6.6-15.3.5-7.8-.2-14.6 0-15.2.5-2.1 1.7-5.1 1.6-8.2-.2-5.5-3.3-3.9 0 3.3 6.6l6.6 6.1-2.7 6.5c-1.5 3.6-3.3 8-4.1 9.8-.8 1.8-1.4 4.5-1.4 6 0 3.3-4.6 11.2-9.5 16.7-2 2.2-4.9 5.5-6.3 7.4-1.5 1.9-3.6 4.4-4.7 5.6-1.1 1.2-2.8 3.6-3.7 5.4-1 1.8-3.2 3.8-5.2 4.6-1.8.8-4.7 2.5-6.2 3.8-1.6 1.3-4.3 3.1-6 4-2.3 1.2-4.4 3.9-7.7 10.4-9.3 18-15.4 26.7-18.4 26.1-3-.6-2.6-3.3 1.4-9.5 10.3-15.9 10.5-18.9 1.2-15.4-5.9 2.3-9.4 2.7-10.4 1.1-.3-.5.7-1.7 2.2-2.7 6.3-4 6.8-6.8 1.2-5.9-4.8.8-8.9-1.3-8.9-4.4 0-3.2-2-6.6-5-8.3-2.7-1.6-3.1-1.6-10.1 1.4-8.9 3.8-11.3 3.2-12.4-3-.8-4.7.9-7.8 7.9-14.6 11.9-11.6 30.6-35.7 30.6-39.4 0-.4 2-4.6 4.4-9.2 4.7-9 10.6-25.1 10.6-29 0-1.3 1-5.8 2.1-9.9 1.3-4.8 2.1-11.8 2.4-19.5.2-6.6.9-14.5 1.5-17.5 1.4-7.1 3-18.8 3.6-26.8.3-3.5 1.3-8.7 2.4-11.5 2.7-7.4 4.3-16.8 3.7-21.9-.2-2.3-.1-6.1.4-8.3.4-2.2 2-10.1 3.4-17.5 1.5-7.4 3.4-16.9 4.4-21 1.3-5.1 1.6-8.9 1.2-12-.8-5.1 1.3-10.4 3.7-9.5 1 .4 1.3 0 1-1.2-.2-1 .7-2.9 1.9-4.2 1.3-1.3 2.3-1.9 2.3-1.3 0 2.8 3 .8 6.1-3.9 2.9-4.6 3.3-6.2 3.9-14.8.9-12.1 3.6-19.1 7.5-19.1 2.2 0 2.4-.2 1.3-1.9-1.3-2.2-.4-5.7 6.2-24.1 7-19.7 14.5-33.6 21.6-40.1 5.8-5.3 21.2-15.5 30.1-20 9.3-4.7 23.2-9.6 35.8-12.6 11.8-2.8 41-1.9 48.2 1.4 2 .9 4.3 1.3 5.9.9 1.5-.4 3-.3 3.3.1.7 1 12 4.9 16.9 5.8 1.8.4 4.3 1.7 5.6 3 2.8 2.8 9.6 4.1 12.7 2.5 1.9-1.1 2.1-1 1.6.4-.5 1.2 0 1.6 1.7 1.6 1.2 0 2.6-.3 3-.7.8-.9 7.7-3.3 9.4-3.3.7 0 1 .5.6 1.1-.5.9.1 1 2.2.5 2.7-.7 8.6-1.7 20.9-3.4l5-.7-3.7-2.5c-2.1-1.4-3.8-3.3-3.8-4.4 0-1.5.2-1.6 1.5-.6 2 1.7 6.7-.2 5.9-2.3-.3-.9.4-1.7 1.8-2.1 1.9-.5 2.1-.8.8-1.7-1.1-.8-.7-.9 2-.5l3.5.6-2.9-2.5c-2.5-2-2.8-2.6-1.7-3.9 1.1-1.3.9-2-1-4.1-3.1-3.2-4.7-3.1-5.5.2-1 4.7-2.6 8.3-3.4 7.8-.5-.3-.4-2 .1-3.7.9-3.4.4-6.8-1.1-6.8-1.3 0-3 3.4-3 5.9 0 1.2-.5 2.1-1.1 2.1-.5 0-.8-.4-.5-.9.4-.5.2-2-.3-3.4-.7-1.7-.6-2.8.2-3.6.9-.9.8-1.1-.6-.6-1.3.6-2-.1-3.1-2.6-.8-1.8-1.2-3.8-.9-4.5.2-.7 0-1.5-.6-1.9-.7-.4-1.1.4-1.1 1.9s-.8 3-1.9 3.6c-3.3 1.7-4.1 1.2-2.5-1.8 1.6-3.2 1.8-5.8.4-6.7-.5-.3-1 .2-1 1.1 0 1.2-1 .6-3.5-2.2-2.5-2.9-3.7-3.6-4.3-2.6-.6.9-1.2.6-2.1-1.2-1.5-2.7-11.2-7.9-13.4-7-.9.3-2.2-.4-3.1-1.7-1.9-2.8-3-2.1-1.8 1.1.5 1.4 2.3 2.9 4.3 3.5 1.9.7 3.2 1.4 2.9 1.7-.9.9 2.2 3.7 3.6 3.1.9-.3 1.4.1 1.4 1.2 0 1.1-.5 1.5-1.5 1.1-.8-.3-2.2-.9-3-1.2-1.9-.8-2 1.2-.1 2.3.7.4 1.9 1.9 2.6 3.3 1.3 2.5 1.3 2.5-.8.7-2.1-1.9-6.2-1.6-6.2.4 0 1.2 1.7 1.2 2.2-.1.2-.6 1.6.3 3.1 2 3.2 3.3 2.1 4-2 1.3-2.6-1.7-2.6-1.7-2.1.5.8 3 0 2.8-3.4-1-1.5-1.7-3.1-2.8-3.5-2.5-.3.4.2 1.4 1.3 2.1 1 .8 1.6 1.8 1.2 2.2-.5.4-1.7-.1-2.8-1.1-1.1-1-2-1.5-2-1 0 .4-.7.2-1.5-.5-.9-.7-1.8-1-2.2-.7-.3.4-1.4.2-2.5-.4-1.9-1-1.9-1-.1 1.7l1.8 2.8-3.3-1.9c-1.7-1.1-3.2-2.2-3.2-2.6 0-.4-.7-1-1.6-1.3-1.4-.5-1.5-.4-.4.9 1.3 1.5.8 1.9-2.2 1.6-1.3-.2-1.6.3-1.2 1.6.3 1.1.2 1.4-.3.7-.4-.5-2.6-1.1-4.7-1.2-2.2-.2-4.3-.5-4.7-.7-.4-.3-.9 0-1.1.7-.3.8-1.1.9-2.4.3-2.3-1-5.5-1.5-10.6-1.6-2.1 0-4-.4-4.3-.9-.3-.5-1.2-.7-2-.4-.8.4-1.2 1-.9 1.5.3.6-.5.7-2.2.3-1.9-.5-2.5-.4-2 .5.5.7-.4 1.1-2.8 1.1-3.5 0-11.2 1.5-15.1 3-1.1.5-7.1 2.8-13.4 5.2-8.3 3.1-12.3 5.3-15 7.9-2 2-5.4 4.4-7.6 5.3-2.2.9-5.6 3-7.5 4.5-2 1.6-5.1 3.2-7 3.6-3.5.7-8.2 4.4-17.2 13.3-2.6 2.6-5.4 4.7-6.3 4.7-.9 0-4.1 2.5-7.2 5.5-5.4 5.2-5.5 5.3-2.3 1.2 1.8-2.4 4.8-5.5 6.6-7 1.9-1.5 3.4-3 3.4-3.5 0-1.6-2.4-.4-8.4 4.3-3.5 2.7-6.8 5-7.2 5-.5 0-.4-.4.2-.8.5-.4 2.5-3.2 4.3-6.2 1.9-3 5.3-7.3 7.7-9.6 2.5-2.2 4.1-4.3 3.8-4.7-.4-.4-1.3.2-2.1 1.3s-2 2-2.7 2c-.8 0-1.9.7-2.6 1.5-.9 1.1-1.6 1.2-2.5.5-.9-.8-1.4-.7-1.8.2-.2.7-.8 1-1.2.6-1-1 1.4-7.5 3-8.2.9-.3 1.5-1.8 1.5-3.5 0-2.4.9-3.4 4.8-6 4.6-2.9 9.9-8.8 9.4-10.3-.1-.4 1.6-2 3.8-3.4 2.2-1.4 4.2-3.5 4.5-4.5.4-1 2.7-3.6 5.3-5.6 2.6-2.1 4.9-4 5.2-4.3.3-.3 3-2.1 6-4s6.1-4 6.8-4.7c.7-.7 2.3-1.3 3.5-1.3 1.2 0 6-1.6 10.7-3.6 8.8-3.6 30.4-8.9 32.1-7.8.5.3 1.5.1 2.2-.4.7-.6 1.7-1.2 2.2-1.4.6-.1.9-.6.8-1-.2-.4 1.1-.5 2.7-.1 3.6.7 4.1-1.3.8-2.7-1.8-.7-1.9-.9-.5-.9.9-.1 2.6.5 3.7 1.1 1.6 1 2.4 1 4.1 0 1.5-1 3.7-1.1 7.1-.7 3.6.5 4.9.4 4.4-.4s.6-.9 3.6-.6c2.3.3 4.6 1.2 5.1 2 .4.8 1.7 1.5 2.7 1.5 1 0 2.2.5 2.6 1.1.3.6 1.7.8 3.1.4 1.9-.4 3.2 0 5.1 1.7 1.4 1.3 2.2 1.8 1.9 1.2-.8-1.4 1.7-2.6 2.9-1.4 1 .9 7.4 2.4 7.4 1.7 0-1-7.1-5.8-9-6.2-1.1-.2-2.5-.7-3-1-.6-.3-1-.2-1 .3 0 .9-10 .4-11-.5-1.5-1.4 3.7-2.2 11-1.7 4.7.3 10.1.5 12 .5zm-64.7.6c-.7.2-2.1.2-3 0-1-.3-.4-.5 1.2-.5 1.7 0 2.4.2 1.8.5zM525 105c0 .5-.2 1-.4 1-.3 0-.8-.5-1.1-1-.3-.6-.1-1 .4-1 .6 0 1.1.4 1.1 1zm.5 19c.3.5.1 1-.4 1-.6 0-1.1-.5-1.1-1 0-.6.2-1 .4-1 .3 0 .8.4 1.1 1zm89.5 7.5c2 4 2.7 9.5 1.1 9.5-.5 0-1.6-1-2.5-2.3l-1.7-2.2.7 2.4c.4 1.7.2 2.2-.7 1.9-.8-.3-1.5-1.6-1.5-2.9-.1-1.3-.4-3.1-.7-3.9-.5-1.2-.4-5.1.2-7.8.3-1.2 3.5 2.1 5.1 5.3zm-248-3c0 .5-8.4 5.5-9.4 5.5-1.8 0 1-2.3 4.8-4 4.9-2.2 4.6-2.1 4.6-1.5zM619 148c0 .5-.4 1-1 1-.5 0-1-.5-1-1 0-.6.5-1 1-1 .6 0 1 .4 1 1zm-9 5c0 .5-.4 1-1 1-.5 0-1 .8-1 1.7 0 1.6-.1 1.6-1.7 0-1.6-1.6-1.6-1.9-.3-2.7 2-1.3 4-1.3 4 0zm18 8.4c-2.7 5.6-3.3 10.3-1.9 13.9 1.4 3.4.3 4.9-1.7 2.3-2.6-3.6-1.1-12.5 3.2-19.1 2.6-4 2.9-2.1.4 2.9zm-8-3.4c0 .5-.2 1-.4 1-.3 0-.8-.5-1.1-1-.3-.6-.1-1 .4-1 .6 0 1.1.4 1.1 1zm-277 6c0 .5-.5 1-1.1 1-.5 0-.7-.5-.4-1 .3-.6.8-1 1.1-1 .2 0 .4.4.4 1zm-8 12.7c0 1-.7 2.7-1.5 3.7-1.9 2.5-1.9 5.6-.1 5.6.8 0 1.6.9 1.8 2 .3 1.9.5 1.9 5.5-.5 2.9-1.4 5.7-3.4 6.2-4.4.6-1 2.3-2.6 3.8-3.6l2.8-1.9-2.7 3.7c-1.6 1.9-2.8 3.9-2.8 4.4 0 .5-.9 1.6-2 2.6-1.1.9-2 1.2-2 .7 0-1.9-2-1-8.1 3.7-10.3 8.1-9.9 7.9-9.9 5.4 0-1.2 1.2-3.3 2.8-4.6 3.7-3.2 2.3-4-1.8-1-6.1 4.5-6.1 2.6 0-6.5 2-3 4-6.7 4.4-8.3.7-3 3.6-3.8 3.6-1zm-21 85.5c0 6.7-.5 9.3-2.4 13.3l-2.4 4.9-.7-3.4c-.3-2.1 0-5.5.9-8.5.9-2.8 1.6-6.4 1.6-8.2 0-3.7.9-6.3 2.1-6.3.5 0 .9 3.7.9 8.2zm235.9 28.2c0 1.7-.3 2.4-.6 1.6-.3-.8-1.2-2.3-2-3.2-.8-.9-1.2-2.2-.8-2.8 1.2-1.9 3.5 1 3.4 4.4zm8.1-.4c0 .5-.4 1-1 1-.5 0-1-.5-1-1 0-.6.5-1 1-1 .6 0 1 .4 1 1zm7.4 1.5c-.7 1.7-2 2-2.8.6-.4-.5 0-1.2.6-1.4 2.3-.9 2.8-.7 2.2.8zm86.3 27.7c-.3.7-.5.2-.5-1.2s.2-1.9.5-1.3c.2.7.2 1.9 0 2.5zm-2.3 24.2c-.4 2.5-.9 4.4-1.2 4.1-.7-.7-.4-7.3.4-8.6 1.1-1.9 1.4-.3.8 4.5zm-1.5 10.3c-.4 2.7-1.4 9.7-2.3 15.8-2 13-3.1 39.8-1.7 37.4.6-.9 1.5-3.6 2.1-6 .6-2.4 1.8-7.1 2.7-10.4.8-3.3 1.9-8.7 2.3-12 1.5-10.1 2.2-12.5 4-13.8 1-.7 2.1-2.9 2.5-5 1-5.2 2.2-5.4 3-.7.6 3.8-.6 10.9-3.6 20.6-.5 1.7-.9 3.9-.9 5s-.6 2.8-1.4 3.9c-.7 1.1-2.3 5.4-3.5 9.5-1.2 4.1-2.8 8.8-3.6 10.5-2.9 6.4-7.5 21.5-7.5 24.7 0 1.9-.4 3.8-1 4.4-.5.5-1.6 4.7-2.3 9.4-1.1 6.5-1.5 7.5-1.6 4.4 0-2.3-.7-4.7-1.5-5.3-1.2-1-1.7-.6-2.5 2.6-.6 2.1-1.1 4.8-1.1 6.1 0 1.2-.7 2.5-1.5 2.8-.9.4-1.5 1.9-1.5 3.6 0 2-1 3.9-2.9 5.7-1.7 1.6-3.3 4.1-3.6 5.7-.3 1.6-1.1 3.7-1.6 4.7s-.7 2.2-.3 2.8c.3.5 0 1.7-.7 2.5-1.8 2.2-2.8 0-2.1-4.8.4-3.4.2-4-1.7-4.5-2.4-.6-2.7-2.5-.6-4.3.8-.6 1.4-1.5 1.3-1.8-.4-3.4.4-7.2 1.6-7.2 1.7 0 3.3-4.3 4.2-11.3.5-3.6 1.4-5.7 2.9-6.9 2.6-2 3.7-4.8 6-14.6 1-4.1 2.3-7.6 3-7.8.7-.3 2-3.1 3-6.2.9-3.1 2.3-7.5 3-9.8.8-2.2 1.9-8.7 2.5-14.4.6-5.7 1.5-11.1 2-12 .5-.9 1.1-4.5 1.4-8 1.1-12.4 2.6-20 4-20 .1 0-.1 2.1-.5 4.7zm-7.2 15.5c-.3.8-.6.5-.6-.6-.1-1.1.2-1.7.5-1.3.3.3.4 1.2.1 1.9zm-.7 14.5c0 2.4-2.7 12.3-3.5 13.2-.6.6 0-6 1.1-12.2.6-3 2.4-3.7 2.4-1zM429 388c0 1.3.7 2 2 2 1.1 0 2 .6 2 1.4 0 1.6-2.6 4.6-4.1 4.6-.5 0-.9.6-.9 1.4 0 .8-.6 1.7-1.2 2-.7.3-.2.3 1 0 2.1-.5 2.3-.3 1.7 1.8-.4 1.2-1.5 3-2.4 3.8-1 .9-1.5 2.2-1.3 2.9.3.8 0 1.1-.7.7-.6-.4-1.1-.3-1.1.1 0 1.7-8.4 3.2-13 2.2-6.2-1.2-15.8-4.3-17-5.5-1.4-1.4 0-5.6 1.6-5 .8.3 1.4.1 1.4-.4 0-.6 1.3-1 2.9-1 1.7 0 3.3-.5 3.6-1 .3-.6 1.3-1 2.1-1s3.3-1.3 5.5-3c2.3-1.6 4.5-2.7 5-2.5.4.3 1 .1 1.4-.5.3-.5 1.9-1 3.6-1 1.6 0 3.7-.9 4.7-1.9 2.2-2.5 3.2-2.6 3.2-.1zm198.6 3.7c-.3 2.1-.5 4.3-.6 4.9 0 .6-.9 2.1-2 3.4-2.1 2.4-2.7 6.5-1 7.5.6.4.5 1.6-.1 3.3-.6 1.5-1.1 6.5-1 11.2 0 5.7-.3 7.8-.9 6.5-.5-1.1-.9-3.1-1-4.5-.1-2.5-.1-2.5-1.8.5-1.2 2.3-1.6 4.9-1.3 10.7.3 7.8-.6 9.8-2.9 6-.8-1.4-1-1.1-.8 1.8.3 6.9-.1 9.2-2.1 9.7-4.2 1.1-5.8 21.5-2.1 26.3 2.6 3.4 2.5 4.3-.5 3.8-2.4-.5-2.5-.4-1.9 3.1.4 2 1.1 3.7 1.5 3.9.5.2.9.9.9 1.7 0 .7.7 1.8 1.6 2.5.8.8 2.3 3 3.2 4.9.9 2 1.8 3.9 2 4.3.2.5-.3.8-1.2.8-3.1 0-1.2 8.3 2.8 12.3 3.4 3.4 4 3.4 2.3-.1-1.8-3.5-2.7-11-1.7-14.2.5-1.4.8-1.9.9-1.3.1.7.8 1.3 1.6 1.3s1.5.4 1.5 1c0 .5.5.9 1 .7 1-.2 3.4 3.1 4.6 6.5.9 2.5 10.9 5.8 11.6 3.8.3-1.1 6.8 4.6 6.8 6.1 0 .7 4.6 3.6 16.5 10.3 1.8 1 3.9 2.9 4.6 4.2 1.1 2.1 3.4 3 6.3 2.5 2.3-.5 5.4 1.1 5.9 2.9.3 1.3 1.3 2 2.9 2 2.2 0 4.6.7 18.3 5.3 10.4 3.4 21.6 10.2 25.5 15.3 1.9 2.6 5.3 6.4 7.4 8.6 2.2 2.1 4.1 4.5 4.2 5.3.1.7 1.8 4.2 3.7 7.8 1.9 3.5 4.4 9.4 5.7 13.1 1.9 6 2 7 .8 8.3-1.3 1.2-1.8 1-4.2-2.2-2.5-3.2-13.7-11.3-27.9-20.2-2.9-1.8-8.6-6.6-12.7-10.6-4.1-4.1-10.4-9.1-14-11.2-3.6-2.1-7.5-4.6-8.8-5.6-1.2-1-4.2-2-6.5-2.4-2.3-.4-8.2-1.8-13.2-3.2-11.2-3.1-18.4-4.1-22.1-3.1-3.7 1-12.1-.7-18.7-3.8-3.4-1.5-5.4-2-5.8-1.3-1 1.7-4.9-.8-4.9-3.2 0-3.2-4.8-12.5-9.9-19.2-2.6-3.4-5.4-7.3-6.1-8.7-.7-1.4-2.5-4.1-4-6-4.4-5.8-7.5-15.8-9.4-31-1.3-10.3-.7-24.9.8-19.7.5 1.6.6 5.2.3 7.9-.5 3.7 0 7.9 1.8 15.2 1.4 5.5 3 10.5 3.5 11 1.3 1.3 1.3-.1-.1-8-1-5.7-.9-6.9 1.2-12.6 1.7-4.8 2.2-8.3 2.1-14.6-.1-7 .2-8.6 1.8-10.2 1.1-1.1 2-2.6 2-3.4 0-.8.5-1.8 1-2.1 1.6-1 1.2-2.5-.5-1.9-.8.4-1.5.1-1.5-.5 0-.7.6-1.4 1.4-1.7 1.8-.7 4.6-7.5 4.6-11.3 0-1.9 1.3-4.4 3.5-7.1 1.9-2.3 3.5-5 3.5-6 0-.9 1.2-2.9 2.7-4.4 2.4-2.4 2.8-2.5 3.6-1 1 1.8.1 9.2-1.4 11-1.1 1.4-3.9 11.7-3.3 12.3.9 1 2.7-2 4-6.6 1.9-7.1 3.9-12.2 5.2-13.5.7-.7 1.2-2.2 1.2-3.5 0-1.3 1.3-3.5 3.1-5 1.7-1.6 3.8-4.5 4.6-6.6.8-2 1.7-3.7 2-3.7.3 0 .2 1.7-.1 3.7zm-174.3 13c-.7.2-1.9.2-2.5 0-.7-.3-.2-.5 1.2-.5s1.9.2 1.3.5zm175.4 56.5c-.3.8-.6.5-.6-.6-.1-1.1.2-1.7.5-1.3.3.3.4 1.2.1 1.9zm6.9 7.6c-1.1 1-1.4-.3-.8-3.3l.7-3 .3 2.8c.2 1.6.1 3.1-.2 3.5zm-6.6-3.2c0 .8-.5 1.2-1 .9-.6-.4-.8-1.1-.5-1.6.9-1.4 1.5-1.1 1.5.7zm-243.7 32.1c5.6.5 6.7.9 6.7 2.4 0 1.1.4 1.9.8 1.9s1.6 2.6 2.7 5.7c1 3.2 2.4 6.9 3.2 8.3 2.2 4.3 5.3 13 5.3 15 0 1 1.2 3.1 2.6 4.5 1.9 1.9 2.3 3.1 1.8 4.8-.4 1.2-.9 7.1-1.1 13.2-.7 21-.6 24.7.7 25.5.7.4 1 1.7.7 2.9-.3 1.2-.1 2.4.4 2.7.5.3.9 1.6.9 3 0 4.1 1.8 6.4 5 6.4 1.6 0 3.2-.5 3.6-1.1.3-.6 1.7-.8 3.1-.4 1.5.3 2.2.2 1.8-.4-.7-1.2 3.8-2.6 5.9-1.8 1.8.7 9.9-1.1 10.7-2.5.4-.6 3.6-1.3 7.2-1.7 3.7-.4 6.9-1 7.3-1.4.4-.3 1.9 0 3.5.9 3.5 1.8 6.8 1.1 12.6-2.6 2.4-1.5 6-3 8.2-3.4 2.1-.3 4.4-1.2 5-2 .7-.8 2-1.2 2.8-.9 1.1.4 1.4.2.9-.5-.5-.8.3-1.4 2.4-1.8 2-.5 2.9-1.1 2.6-2-.3-.7.4-1.6 1.5-1.9 1-.4 1.9-1.5 1.9-2.5 0-2.8 3.6-3.3 10.5-1.5 3.2.8 7.2 1.5 8.7 1.5 1.7 0 2.8.5 2.8 1.4 0 1.5 2.7 2.9 4.1 2.1 1.1-.8 4.8 1.2 7.9 4.2 2.7 2.7 2.9 6.9.5 10.7-.7 1.2-1.6 3.9-1.9 6.1-.4 2.2-2.5 8.8-4.8 14.6l-4.1 10.7-7.1 4c-3.9 2.2-9.8 5.4-13.1 7.2-3.3 1.8-8.7 5.2-12.1 7.6-11.2 8-17.9 10-56.5 16.9-26.7 4.7-36 5.4-45.1 3.3-4.4-1-6.3-2.3-11.4-7.3-3.3-3.3-7.3-8-9-10.5-2.8-4.4-2.9-4.8-2.7-15.6.1-6.1.9-14.4 1.7-18.5.8-4.1 1.8-9.9 2.1-12.9.4-3 .8-6.9 1.1-8.5.2-1.7.8-8.6 1.3-15.5.6-6.9 1.5-16.8 2.2-22 .7-5.2 1.3-18.1 1.3-28.5.1-11.4.5-19.3 1.1-19.7 1.2-.9 3.2-1 11.8-.1zm193.5 32.9c5.2 1.5 11.2 5.6 11.2 7.6 0 3.2-14.1-2.8-16.8-7.1-1.5-2.5-1.5-2.5 5.6-.5zm-243.4 31.3c-.2 4.4-1.1 7.1-3.5 11-1.8 2.8-3.6 5.1-4 5.1-.5 0-2 1.8-3.4 4-2.2 3.6-6.7 7.2-12.9 10.7-1.2.6-4.2 1.4-6.8 1.8-4.1.6-4.8.5-4.8-1 0-.9 5.3-6.9 11.8-13.3 6.5-6.4 12.8-13.3 14.1-15.2 1.7-2.6 8.2-8.6 9.8-9 0 0 0 2.6-.3 5.9zM458 581c0 .5-.5 1-1.1 1-.5 0-.7-.5-.4-1 .3-.6.8-1 1.1-1 .2 0 .4.4.4 1zm-131 11.6c0 .8-.4 1.2-1 .9-.5-.3-1-1-1-1.6 0-.5.5-.9 1-.9.6 0 1 .7 1 1.6z"/><path d="M480 84c0 .5.5 1 1.1 1 .5 0 .7-.5.4-1-.3-.6-.8-1-1.1-1-.2 0-.4.4-.4 1zM563 104.5c-1.6 1.9.1 4.2 2.2 2.9.7-.5 2.1-.7 3.1-.6 2.6.5 2.1-1.3-.8-2.6-3.2-1.5-3-1.5-4.5.3zM488.5 112c.3.5 1.8 1 3.3.9 2.4 0 2.5-.1.7-.9-2.8-1.2-4.7-1.2-4 0zM551.6 118.7c-.6 1.4-.5 1.5.5.6.7-.7 1-1.5.7-1.8-.3-.3-.9.2-1.2 1.2zM572 130c0 .5 1.2 1 2.8.9 2.4 0 2.5-.1.7-.9-2.7-1.2-3.5-1.2-3.5 0zM381.9 138.7c-1.3 1.7-1.3 1.7.6.3 1.1-.8 2.2-1.6 2.4-1.7.2-.2 0-.3-.6-.3s-1.7.8-2.4 1.7zM363.2 145.3c-1.2 1.3-2.2 2.9-2.2 3.5 0 .7-.6 1.2-1.3 1.2-.8 0-1.4.7-1.4 1.5 0 1 1.9-.2 4.9-3.2 2.6-2.6 4.8-4.9 4.8-5 0-1.2-3 .1-4.8 2zM391.5 144c-.8 1.3.5 1.3 2.5 0 1.3-.8 1.3-1-.2-1-.9 0-2 .4-2.3 1zM547.3 153.7c.9.2 2.5.2 3.5 0 .9-.3.1-.5-1.8-.5-1.9 0-2.7.2-1.7.5zM548 158c0 1 9.9 4.4 10.6 3.8.2-.3-2-1.4-5.1-2.5-3-1.2-5.5-1.7-5.5-1.3zM367 159c0 1.3 3 1.3 5 0 1.1-.7.7-1-1.7-1-1.8 0-3.3.4-3.3 1zM341.7 233.6c-.3.4.1 1.7 1 3 .8 1.3 1.3 3.3 1 4.4-.5 2 1.1 4.7 6.8 11 5.1 5.6 4.3 6.5-5.2 6.1-11.6-.4-12.3-.1-12.3 6 0 3.5-.4 5.1-1.5 5.5-2.5 1-1.7 3.1 2 5.3 1.9 1.1 3.5 2.7 3.5 3.5 0 1.9 4.9 1.5 6.4-.6 2.1-2.9 10.4-4.5 11.3-2.1.3.7-.2 2.6-1 4.2-1.5 3.1-1.2 7.5.7 8.9.6.5 3.8 1.5 7.1 2.2 3.3.7 7 1.9 8.2 2.6 2.5 1.6 10.2 4.4 12 4.4.7 0 1.6-1.5 2.1-3.3.5-1.9 1.5-3.2 2.4-3.2 2.8 0 2.9-.9 1.3-8.5-.8-4-1.5-9.4-1.4-11.9.2-5.1-3.7-15.1-5.8-15.1-.7 0-2.3-1.6-3.5-3.5-2.5-3.7-7-6.4-7.6-4.6-.2.6-1.3 0-2.4-1.4-1.1-1.4-2.8-2.5-3.8-2.5s-2.2-.5-2.5-1c-.5-.8-1.1-.8-2 0-.9.8-1.5.8-2 0-.3-.5-1.6-1-2.8-1-2.4 0-9.7-5.9-9.7-7.8 0-1.3-1.3-1.6-2.3-.6zm8.8 32.9l4 1.3-4.2.1c-2.3.1-4.5-.4-4.9-1-.4-.8-.9-.8-1.7 0-.6.6-2.2 1.1-3.6 1.1-2.5-.1-2.5-.1-.7-1.5 2.4-1.8 5.7-1.8 11.1 0zm11.5 13.1c0 .8-.4 1.2-1 .9-.5-.3-1-1-1-1.6 0-.5.5-.9 1-.9.6 0 1 .7 1 1.6zM440.8 267.8c-1 .2-1.8.8-1.8 1.3s-1.1.9-2.4.9c-1.3 0-2.9.7-3.6 1.5-.8.9-2.1 1.3-3.6.9-1.3-.3-2.4-.2-2.4.3 0 .9-5.5 3.9-7.3 4.1-.5 0-1.7 1-2.7 2.2-1 1.2-2.2 2.2-2.7 2.3-.4.1-.7 2.1-.6 4.5.1 3.3-.4 4.6-2 5.7-1.2.8-1.6 1.5-1 1.5 1.7 0 2.3 3.9 1.5 10-.4 3-.4 7.5.1 10s.9 5.1 1 5.7c0 .7.6 1.3 1.4 1.3.7 0 1.3.5 1.3 1.1 0 .5.5.7 1 .4.6-.3 1.3.1 1.6 1 .4 1 1.4 1.5 2.5 1.2 1-.3 2.7.2 3.9 1 1.1.8 2.7 1.3 3.4 1 1.6-.6 11.1 3.7 13.9 6.4 5.7 5.4 20.5 13.4 26.4 14.4 1.5.2 6.9.6 11.8.9 7.1.5 8.6.3 7-.6-1.9-1.1-1.9-1.1 0-1.9 1.1-.4 3.5-.8 5.3-.8 1.8-.1 3.1-.5 2.8-1-.7-1-5.8-2-14.1-2.7-3.3-.3-8.5-1.3-11.5-2.1s-6.5-1.6-7.7-1.7c-1.1 0-1.9-.5-1.5-1 .3-.5-.2-.7-1.1-.3-1 .4-1.7.1-1.7-.6 0-.9-.2-.9-.8.1-.7 1-1.4.8-3.4-.8-1.5-1.1-3-2-3.6-2-2 0-6.9-3.1-10.2-6.5-1.9-2.1-4.5-4.1-5.8-4.6-1.3-.5-2-1.3-1.7-1.9.9-1.4 6.9-1.2 8.3.2.7.7 3.8 1.5 7 1.9 3.1.3 6.5 1 7.6 1.4 1.6.7 1.7.6.6-1.4-.6-1.2-.9-3.5-.5-5 .5-2.5 1-2.8 5.4-2.9l4.8-.1-1 3.8c-2 7.4 1 10.8 10.2 11.7 1.8.2 3.6.6 4 .9.3.4-1.9.5-4.9.2-7.2-.7-8.8-1.1-13-2.9-1.9-.8-3.7-1.3-4-1.1-1.5 1.3 10.5 7.3 14.6 7.3 1.3 0 2.4.4 2.4.9s-.9.7-2 .4c-2.9-.8-2.5 1.2.5 2.5 3.2 1.5 4.8 1.5 4 .2-.4-.6 1.7-1 5.7-1 3.5-.1 9.6-.9 13.7-1.9 7.1-1.7 13.8-1.7 11.1-.1-2.2 1.4.8 1.6 8.1.6 3.8-.5 6.9-1.3 6.9-1.8 0-.4.8-.8 1.9-.8 2.1 0 4.5-2.3 3.4-3.3-.3-.4-.6-2.3-.5-4.2.1-2.2-.5-4.2-1.6-5.3-3.3-3.1-10.4-8.7-13-10.1-1.5-.8-3.2-2-4-2.8-.7-.7-2.2-1.8-3.3-2.4-1.1-.6-1.7-1.5-1.3-2.2.4-.7.4-.9-.1-.5-.4.4-2 .1-3.6-.7-3.3-1.8-4.8-3.7-2.2-2.9 1.6.5 1.6.4.2-.8-.9-.7-1.4-1.8-1.2-2.4.2-.7-.6-1-2.1-.7-1.4.3-2.4.9-2.1 1.3.3.5-.4.6-1.5.3s-1.7-.9-1.4-1.4c.3-.5-.6-.9-1.9-.9-1.5 0-2.4-.6-2.4-1.5s.6-1.4 1.4-1.1c.7.3 1.3.1 1.3-.4 0-.6.7-1 1.5-1s1.5.4 1.5 1c0 .5 2 .7 4.8.3 3.7-.4 6 0 10 1.7 2.9 1.2 5.2 2.6 5.2 3.1s.6.9 1.4.9c.7 0 1.9.7 2.6 1.5 1.4 1.7 6 2 6 .4 0-.6-.9-1.3-2-1.6-1.2-.3-2-1.4-2-2.8 0-1.6-1.2-2.8-4.4-4.5-2.4-1.2-4.9-2-5.4-1.6-2.8 1.7-9.5-5.6-7.4-8 .4-.4.2-.4-.5 0-.6.3-1.4.2-1.8-.4-.3-.5-1.7-1-3-1s-2.6-.4-3-.9c-.3-.6-1.4-.9-2.5-.8-1.4.1-1.6.4-.8 1.4.5.7 1.4 1.1 1.8.8.4-.3 1.3.2 2 1 1.1 1.3.8 1.3-1.9.4-1.7-.6-3.8-2.1-4.6-3.3-1.3-1.8-1.7-1.9-2.5-.6-.9 1.3-1.4.7-1.1-1.2.2-1.7-5-4-8.1-3.5-1.8.2-5-.2-7.1-.9-2.7-1-4.4-1.1-5.7-.4-2.4 1.3-3.3 1.3-2.4-.1.4-.8 0-.9-1.5-.4-1.7.5-2 .3-1.4-1.1.5-1.5.1-1.4-2.7.6-1.8 1.3-3 1.8-2.5 1 .6-1 .3-1.2-1.3-.8-1.4.4-2.2.2-2.2-.7 0-1.2-2.7-1.5-6.2-.7zm71.7 23.2c.3.6-.1.7-.9.4-1.8-.7-2.1-1.4-.7-1.4.6 0 1.3.4 1.6 1zm-35 18.1c1.6 1.6-2 1-4.1-.7-1.8-1.4-1.8-1.5.6-.8 1.4.3 2.9 1 3.5 1.5zm-5 6.9c.3.5.1 1-.4 1-.6 0-1.1-.5-1.1-1 0-.6.2-1 .4-1 .3 0 .8.4 1.1 1zM343.5 287.2c4.3 3.8 8.5 6.3 8.5 5.1-.1-1-7.9-6.9-10.5-7.9-1.1-.4-.1.8 2 2.8zM309.5 293.1c-.4.6-.5 1.2-.2 1.5.2.3.7-.2 1-1.1.7-1.7.1-2-.8-.4zM362 297.5c0 1.2-1.5 1.5-7.2 1.5-7.9 0-11.8.7-11.8 2.1 0 .5 1.9 1.9 4.3 3.1 3.3 1.7 5.9 2.2 12.4 2.3 7.2 0 8.5-.3 10.5-2.3l2.2-2.2h-2.2c-2.4 0-3-1.5-.9-2.3.7-.4.6-.6-.4-.6-.9-.1-2.2-.8-2.9-1.6-.7-.8-1.9-1.5-2.6-1.5-.8 0-1.4.7-1.4 1.5zM551.1 302.6c0 1.1.3 1.4.6.6.3-.7.2-1.6-.1-1.9-.3-.4-.6.2-.5 1.3zM333.4 350.4c-1.8.8-6.2 1.9-9.8 2.4-3.7.6-8.2 1.9-9.9 2.9-3 1.8-3.2 2.2-3.5 8.7-.3 6.5 1.2 12.6 3.1 12.6.5 0 2-.9 3.4-2s3.6-2 5-2c1.3 0 2.6-.6 2.9-1.4.3-.8 1.8-1.6 3.4-2 2.1-.4 3.4-1.5 4.3-3.8.8-1.8 3.6-5.5 6.2-8.1 4.6-4.6 4.7-4.8 3-6.7-2.1-2.3-3.8-2.4-8.1-.6zM348 357.8c0 1.4 3.9 4.6 4.7 3.9.3-.4-.2-1.6-1.2-2.7-1.9-2.1-3.5-2.6-3.5-1.2zM322 377.5c0 1.9.8 2.8 3.5 3.9 1.9.8 3.8 2.2 4.1 3.1.3.8 1.2 1.5 1.9 1.5 2.1 0-1.6-6.5-5.1-8.9-3.9-2.7-4.4-2.6-4.4.4zM311.7 382.7c-.9 1.4.7 6.6 2.1 7.1.7.2 1.2-.5 1.2-1.5-.1-2.5-2.6-6.8-3.3-5.6zM305 406.9c-1.1 2.2-1.4 18.1-.2 18.1 1.1 0 5.2-6.4 5.2-8.3 0-.8.5-1.9 1-2.2 1.4-.9 1.2-5.7-.4-7.8-1.7-2.3-4.3-2.2-5.6.2zM313.1 426c-.6 2.8-1.6 6.1-2.2 7.2-.8 1.4-.8 2.3 0 3.1 1.7 1.7 3.8-2 4.5-8.2.9-7.3-.9-8.9-2.3-2.1zM308.1 429.2c-.5 1.3-.7 2.5-.5 2.7.7.7 3.4-2.1 3.4-3.5 0-2.2-2-1.6-2.9.8zM300.3 435.7c-1.3.5-1.8 3.5-.7 4.5.7.7 6.4-1.4 6.4-2.4 0-.7-3.4-2.9-4.2-2.7-.2 0-.9.3-1.5.6zM402.6 451.8c-.4.6.8.8 3.4.5 2.5-.4 4.6-.1 5.5.7 1.5 1.2 3.5.6 2.2-.6-1.2-1.2-10.4-1.7-11.1-.6zM271.1 550c-5.2.8-8.1 2.3-6.8 3.6.8.8 15.5.7 16.8-.2 1.6-.9 1-2-1.6-3.2-1.4-.7-2.7-1.1-2.8-1.1-.1.1-2.6.5-5.6.9zM617.2 465.2c-1.3 5-1.6 8.5-.6 7.6.3-.4.7-1.2.8-2 .2-.7.6-2.5 1-4 .4-1.4.6-3.5.4-4.5-.2-1-.9.1-1.6 2.9zM615.7 430.7c-.4.3-.7 2.2-.6 4.2l.1 3.6.9-3.9c.9-3.9.8-5.2-.4-3.9zM604.7 432.7c-.4.3-.7 1.6-.6 2.7 0 1.9.1 1.9 1-.3 1-2.4.8-3.6-.4-2.4zM611.6 534.7c.8 2.7 3.3 5.8 4.1 4.9.9-.9-1.7-5.8-3.4-6.3-.7-.3-1 .3-.7 1.4z"/></svg>