<?xml version="1.0" encoding="UTF-8"?>
<svg width="540px" height="453px" viewBox="0 0 540 453" version="1.1" xmlns="http://www.w3.org/2000/svg" xmlns:xlink="http://www.w3.org/1999/xlink">
    <!-- Generator: Sketch 61 (89581) - https://sketch.com -->
    <title>undraw_things_to_say_ewwb@2x</title>
    <desc>Created with Sketch.</desc>
    <g id="Page-1" stroke="none" stroke-width="1" fill="none" fill-rule="evenodd">
        <g id="Homepage" transform="translate(-70.000000, -960.000000)" fill-rule="nonzero">
            <g id="02" transform="translate(70.000000, 960.000000)">
                <g id="undraw_things_to_say_ewwb">
                    <circle id="Oval" fill="#DBBAF4" cx="60" cy="242" r="8"></circle>
                    <circle id="Oval" fill="#DBBAF4" cx="94" cy="306" r="8"></circle>
                    <circle id="Oval" fill="#DBBAF4" cx="68" cy="290" r="8"></circle>
                    <path d="M379.002981,436 L247.170552,436 C247.170552,436 244.498274,396.718871 260.309256,396.272493 C276.120239,395.826114 274.338724,413.681177 294.158124,389.130469 C313.977524,364.57976 338.028035,365.918895 341.145695,380.42613 C344.263355,394.933364 335.133069,406.539153 351.834809,402.968138 C368.536549,399.397123 392.587066,408.771033 379.002981,436 Z" id="Path" fill="#AEF4D0"></path>
                    <path d="M310.435991,436 L310,435.982193 C311.016776,410.213332 316.312368,393.656541 320.575726,384.305041 C325.204757,374.150972 329.665444,370.040392 329.709981,370 L330,370.332376 C329.956104,370.372334 325.54741,374.442087 320.955462,384.527426 C316.715643,393.839421 311.449036,410.328213 310.435991,436 Z" id="Path" fill="#F2F2F2"></path>
                    <path d="M358.434952,436 L358,435.875877 C363.237612,418.243218 375.57146,407.110456 375.69558,407 L376,407.328966 C367.818363,415.314705 361.783267,425.165657 358.434952,436 Z" id="Path" fill="#F2F2F2"></path>
                    <path d="M267.478683,436 L267.045413,435.938332 C268.456792,426.209645 266.963433,416.27125 262.761288,407.42722 C261.037628,403.71767 258.756101,400.308179 256,397.32322 L256.302583,397 C259.094764,400.021483 261.406491,403.473122 263.153344,407.228875 C267.394416,416.153368 268.902137,426.182368 267.478683,436 Z" id="Path" fill="#F2F2F2"></path>
                    <path d="M396.816359,437 L232.267583,437 L232.229623,436.441939 C232.135022,435.053655 230.035933,402.306974 240.633845,390.622779 C242.760047,388.12676 245.840912,386.646725 249.116027,386.547972 C256.024117,386.351229 260.365349,388.941871 263.866847,391.021228 C270.466597,394.941099 274.826529,397.530838 290.678721,377.914834 C307.85156,356.664387 326.380382,352.092616 337.032017,354.634728 C343.914118,356.27763 348.657425,360.92073 350.045818,367.373655 C351.360336,373.483971 350.941602,379.225359 350.605258,383.838644 C350.245241,388.774656 349.96085,392.673482 351.98577,394.440333 C353.676075,395.914565 357.049968,396.048744 362.602949,394.862167 C373.897826,392.449852 389.657749,394.514002 397.568225,404.746775 C401.824209,410.25196 405.176785,420.259049 396.981601,436.669077 L396.816359,437 Z M233.39056,435.80261 L396.075884,435.80261 C402.182768,423.398108 402.37343,412.9189 396.622486,405.479649 C389.365764,396.092593 374.141344,393.621809 362.852303,396.03325 C356.819295,397.322139 353.224374,397.10932 351.200034,395.343057 C348.724286,393.183307 349.027955,389.021097 349.41221,383.751528 C349.743321,379.214541 350.155016,373.568159 348.876707,367.625646 C347.589343,361.641619 343.171012,357.331196 336.754629,355.799668 C326.442866,353.336482 308.431733,357.850665 291.608399,378.667884 C275.106542,399.087821 270.135486,396.136441 263.256889,392.051109 C259.712187,389.946326 255.687456,387.559144 249.149897,387.744775 C246.201196,387.839539 243.429743,389.177218 241.519146,391.427862 C231.994285,401.9287 233.157262,431.375543 233.39056,435.80261 Z" id="Shape" fill="#CFCCE0"></path>
                    <rect id="Rectangle" fill="#CFCCE0" x="193" y="436" width="236" height="1"></rect>
                    <path d="M177.841322,308.508889 C178.044732,309.985191 178.052616,311.48377 177.864752,312.962325 C177.826142,313.297488 177.777095,313.626738 177.720245,313.952188 L177.720594,313.954647 C177.047001,317.452744 175.701753,320.771531 173.766267,323.710152 C173.639715,323.90079 173.56743,324 173.56743,324 L173.296291,323.783566 C171.14682,321.988288 169.282803,319.848278 167.773521,317.443075 C167.641472,317.22502 167.509087,317.004512 167.38304,316.777969 C166.261429,314.863026 165.505295,312.738897 165.15646,310.523064 L165.151897,310.491111 C165.118228,310.255176 165.089202,310.0185 165.067619,309.783203 C164.890922,307.712819 165.061177,305.626069 165.570719,303.616926 C165.631011,303.366323 165.694368,303.120255 165.762775,302.875911 C166.535377,300.175049 167.704004,297.615915 169.226953,295.289836 C169.353504,295.099229 169.42579,295 169.42579,295 C169.42579,295 169.522665,295.0728 169.696929,295.216422 C171.785671,296.960483 173.605362,299.030312 175.09212,301.353247 C175.222735,301.561491 175.351399,301.772534 175.478375,301.988853 C176.348462,303.45315 177.019358,305.037022 177.47174,306.694846 C177.54911,306.984257 177.617773,307.280043 177.677049,307.577315 C177.742427,307.883665 177.796397,308.194307 177.841322,308.508889 Z" id="Path" fill="#CFCCE0"></path>
                    <path d="M250.621805,338.75415 C251.576568,339.878098 252.369121,341.125983 252.977095,342.462579 C253.118442,342.763425 253.247387,343.064973 253.367453,343.367506 L253.369054,343.369371 C254.603671,346.655061 255.146959,350.152734 254.966037,353.650706 C254.953428,353.878134 254.941171,354 254.941171,354 L254.586578,353.965216 C251.733887,353.623037 248.954358,352.839049 246.351298,351.642391 C246.119554,351.531329 245.886227,351.418396 245.655381,351.297006 C243.654079,350.30116 241.868161,348.933649 240.396406,347.27011 L240.375604,347.245874 C240.221957,347.066889 240.072113,346.884745 239.929564,346.699782 C238.687144,345.065049 237.744703,343.229746 237.144684,341.276525 C237.066938,341.034658 236.994275,340.794924 236.927053,340.553915 C236.198396,337.881021 235.896235,335.113219 236.031353,332.349282 C236.043968,332.12186 236.056262,332 236.056262,332 C236.056262,332 236.180591,332.008641 236.410843,332.034772 C239.18268,332.366869 241.886003,333.116092 244.425909,334.256141 C244.65123,334.359754 244.876278,334.466811 245.1026,334.579131 C246.643982,335.333932 248.070893,336.295944 249.342232,337.437458 C249.562756,337.637599 249.778901,337.847757 249.98741,338.064208 C250.206113,338.284982 250.417578,338.514962 250.621805,338.75415 Z" id="Path" fill="#CFCCE0"></path>
                    <path d="M261.76522,200 L258.723818,250 C258.723818,250 248.585724,278 261.765245,278 C274.944765,278 266.834288,248 266.834288,248 L279,199 L261.76522,200 Z" id="Path" fill="#FFB9B9"></path>
                    <path d="M358.234754,194 L361.276181,244 C361.276181,244 371.414277,272 358.234754,272 C345.05523,272 353.165709,242 353.165709,242 L341,193 L358.234754,194 Z" id="Path" fill="#FFB9B9"></path>
                    <path d="M298.445415,405.780283 L300.492331,430.815489 C300.492331,430.815489 292.304642,450.843651 305.609621,452.846466 C305.742667,452.866496 305.874391,452.885528 306.004794,452.903562 C309.350945,453.353861 312.71528,452.210311 315.055468,449.827206 C317.395655,447.444101 318.429106,444.10921 317.83564,440.855744 L315.844238,429.814082 C315.844238,429.814082 316.867696,409.78592 310.726942,405.780283 C304.586188,401.774646 298.445415,405.780283 298.445415,405.780283 Z" id="Path" fill="#8D2813"></path>
                    <path d="M317.272137,384 C317.272137,384 315.284423,390 316.27828,396 C317.272137,402 318.265994,419 318.265994,419 C318.265994,419 318.265994,437 325.222993,437 C327.707639,437 329.811981,434.831631 331.490744,432.043728 C335.000914,426.06854 335.925391,418.907438 334.048868,412.228221 L330.192278,397.99998 L330.192278,387 L317.272137,384 Z" id="Path" fill="#8D2813"></path>
                    <path d="M280.589182,201 C280.589182,201 258.576965,229.957785 270.583614,272.895192 C282.590264,315.8326 283.59085,327.815135 283.59085,327.815135 L290.594743,409.69578 C290.594743,409.69578 302.601422,413.689957 312.606989,407.698686 L309.605315,328.813685 L309.605315,280.883551 L315.608658,333.806406 L315.608658,386.729254 C315.608658,386.729254 329.616444,400.708877 339.622011,387.727798 L341.623123,328.813679 C341.623123,328.813679 347.62646,246.93304 343.624235,238.944687 C339.622011,230.956335 330.617,202.997088 330.617,202.997088 L280.589182,201 Z" id="Path" fill="#242424"></path>
                    <path d="M300.415091,66.4926419 C300.415091,66.4926419 290.245284,62.8729627 283.707545,77.3516797 C277.169807,91.8303968 267,107.756938 267,107.756938 L272.811316,109.204804 C272.811316,109.204804 274.264149,99.0697196 277.896223,97.6218479 L276.443397,110.652675 C276.443397,110.652675 320.0283,125.85531 339.64151,109.204804 L338.915094,104.137259 C338.915094,104.137259 341.820752,104.861195 341.820752,109.204804 L344,107.033002 C344,107.033002 341.820752,102.689393 335.283019,96.8979121 C330.991934,93.0966412 329.517331,85.8647591 329.010567,81.3432995 C328.630931,77.5678006 327.115199,73.9947873 324.662161,71.0928635 C320.317522,66.074812 312.400944,60.741379 300.415091,66.4926419 Z" id="Path" fill="#8D5B13"></path>
                    <circle id="Oval" fill="#FFB9B9" cx="306" cy="95" r="19"></circle>
                    <path d="M301,107 L295,131 L313.000021,183 L327,128 C327,128 314,119 317,107 L301,107 Z" id="Path" fill="#FFB9B9"></path>
                    <path d="M350,244.495693 C350,244.495693 321,255.508196 315,238.488873 C309,221.46955 310,208.454761 310,208.454761 C310,208.454761 301,243.494556 286,243.494556 C270.999987,243.494556 263,238.488873 263,238.488873 C263,238.488873 274,203.449078 284,197.442252 C284,197.442252 284.049989,197.322124 284.14002,197.101839 C284.700016,195.700289 286.679996,190.143925 285.289984,185.258376 C285.007891,184.253257 284.572787,183.297654 283.999985,182.425202 C279.999986,176.418376 275.999962,174.416085 276.999986,159.399065 L268.999963,131.367233 L296.590017,125 L310.999981,170.411557 L324.119983,125.951028 L347.999988,129.364942 C347.999988,129.364942 350,165.405873 339.999966,178.42065 C338.427618,180.470806 337.235394,182.786729 336.479944,185.258376 C334.739952,190.784667 335.14999,196.601274 336.089991,201.246562 L336.099938,201.246562 C336.727806,204.413516 337.700281,207.502091 338.999966,210.457035 L350,244.495693 Z" id="Path" fill="#075880"></path>
                    <path d="M341,130.024324 L347,129.024683 C347,129.024683 349.5,128.524859 354,132.023608 C359.746573,136.49157 360,197.000329 360,197.000329 L341,198 L341,130.024324 Z" id="Path" fill="#075880"></path>
                    <path d="M274,133.060735 L269,131.062447 C269,131.062447 267,130.063302 266,136.058168 C265,142.053033 260,204 260,204 L281,203.000856 L281,158.039347 L274,133.060735 Z" id="Path" fill="#075880"></path>
                    <path d="M283.722135,98 C283.722135,98 289.499067,90 294.553894,88.5454571 C299.608721,87.0909162 300.330826,79.8181876 300.330826,79.8181876 C300.330826,79.8181876 313.328919,94.3636567 321.272197,95.0909062 C329.215475,95.8181557 321.994314,77.6363673 321.994314,77.6363673 L307.551969,74 L293.831759,75.4545469 L283,82.7272814 L283.722135,98 Z" id="Path" fill="#8D5B13"></path>
                    <circle id="Oval" fill="#F1E5FB" cx="311" cy="191" r="6"></circle>
                    <path d="M413.998249,106.080128 C403.273215,76.0437278 416.223489,42.7222365 444.475692,27.6606418 C472.727895,12.5990471 507.80898,20.3144336 527.036244,45.8181918 C546.263507,71.32195 543.870549,106.965313 521.404606,129.702019 C498.938664,152.438725 463.137441,155.449866 437.149267,136.788501 C432.367769,145.010875 422.604036,148.984524 413.396227,146.455527 C404.188418,143.92653 397.860727,135.533245 398.002329,126.036488 C398.143932,116.539731 404.719085,108.336631 413.998249,106.080128 L413.998249,106.080128 Z" id="Path" fill="#C93B1B"></path>
                    <circle id="Oval" fill="#FFFFFF" cx="450.5" cy="81.5" r="7.5"></circle>
                    <circle id="Oval" fill="#FFFFFF" cx="476.5" cy="81.5" r="7.5"></circle>
                    <circle id="Oval" fill="#FFFFFF" cx="501.5" cy="81.5" r="7.5"></circle>
                    <path d="M407.864199,133.427469 C398.013621,130.905362 391.093956,122.08569 391.000912,111.935035 C390.909728,101.78438 397.668199,92.8410322 407.471389,90.1412181 C396.550965,58.4857582 410.340046,23.6059112 439.974029,7.92492537 C469.608011,-7.75606049 506.267566,0.428612265 526.385321,27.2172535 C546.503077,54.0058947 544.091815,91.4259721 520.701666,115.421197 C497.311517,139.416421 459.903592,142.845606 432.526369,123.504227 C427.350633,131.823448 417.372946,135.83814 407.864199,133.427469 L407.864199,133.427469 Z M488.628699,3.09131461 C464.621234,-3.05146309 439.177084,4.52636602 422.466504,22.795876 C405.755925,41.0653859 400.50478,67.0464154 408.812,90.3541148 L409.033829,90.9754631 L408.392305,91.1328495 C398.997179,93.4255785 392.339341,101.763426 392.195499,111.416686 C392.051658,121.069945 398.458125,129.601758 407.780783,132.172389 C417.103441,134.74302 426.988889,130.703542 431.829532,122.345379 L432.159975,121.773518 L432.695983,122.160291 C454.556026,137.928466 483.753396,139.086806 506.798177,125.100129 C529.842959,111.113453 542.248371,84.7049414 538.282804,58.0759889 C534.317237,31.4470363 514.752779,9.78225438 488.628699,3.09131461 Z" id="Shape" fill="#8D2813"></path>
                    <path d="M70.8922024,400 C70.7540048,399.776491 67.4954534,394.391322 66.365749,383.208899 C65.3295534,372.949604 65.9958452,355.656771 75.0569899,331.534692 C92.223055,285.837023 71.1009711,248.96563 70.8851447,248.598354 L71.9272238,248 C71.981915,248.093129 77.4322428,257.493888 80.6519827,272.463165 C84.9062693,292.309267 83.3571276,312.944422 76.1861101,331.950282 C59.0494682,377.569932 71.7896224,399.165919 71.920166,399.378949 L70.8922024,400 Z" id="Path" fill="#CFCCE0"></path>
                    <path d="M63.5,247 C58.8055796,247 55,243.19442 55,238.5 C55,233.80558 58.8055796,230 63.5,230 C68.1944204,230 72,233.80558 72,238.5 C71.9947368,243.192239 68.1922386,246.994737 63.5,247 L63.5,247 Z M63.5,231.214286 C59.4762111,231.214286 56.2142857,234.476211 56.2142857,238.5 C56.2142857,242.523789 59.4762111,245.785714 63.5,245.785714 C67.5237889,245.785714 70.7857143,242.523789 70.7857143,238.5 C70.7811138,234.478118 67.5218818,231.218886 63.5,231.214286 L63.5,231.214286 Z" id="Shape" fill="#CFCCE0"></path>
                    <circle id="Oval" fill="#CFCCE0" cx="88" cy="267" r="8"></circle>
                    <path d="M71.5,295 C66.8055796,295 63,291.19442 63,286.5 C63,281.80558 66.8055796,278 71.5,278 C76.1944204,278 80,281.80558 80,286.5 C79.9947368,291.192239 76.1922386,294.994737 71.5,295 L71.5,295 Z M71.5,279.214286 C67.4762111,279.214286 64.2142857,282.476211 64.2142857,286.5 C64.2142857,290.523789 67.4762111,293.785714 71.5,293.785714 C75.5237889,293.785714 78.7857143,290.523789 78.7857143,286.5 C78.7812206,282.478074 75.5219261,279.218779 71.5,279.214286 L71.5,279.214286 Z" id="Shape" fill="#CFCCE0"></path>
                    <path d="M91.5,311 C86.8055796,311 83,307.19442 83,302.5 C83,297.80558 86.8055796,294 91.5,294 C96.1944204,294 100,297.80558 100,302.5 C99.9947368,307.192239 96.1922386,310.994737 91.5,311 Z M91.5,295.214286 C87.4762111,295.214286 84.2142857,298.476211 84.2142857,302.5 C84.2142857,306.523789 87.4762111,309.785714 91.5,309.785714 C95.5237889,309.785714 98.7857143,306.523789 98.7857143,302.5 C98.7812206,298.478074 95.5219261,295.218779 91.5,295.214286 Z" id="Shape" fill="#CFCCE0"></path>
                    <circle id="Oval" fill="#DBBAF4" cx="385" cy="365" r="8"></circle>
                    <path d="M382.5,370 C377.80558,370 374,366.19442 374,361.5 C374,356.80558 377.80558,353 382.5,353 C387.19442,353 391,356.80558 391,361.5 C390.994737,366.192239 387.192239,369.994737 382.5,370 L382.5,370 Z M382.5,354.214286 C378.476211,354.214286 375.214286,357.476211 375.214286,361.5 C375.214286,365.523789 378.476211,368.785714 382.5,368.785714 C386.523789,368.785714 389.785714,365.523789 389.785714,361.5 C389.781324,357.478031 386.521969,354.218676 382.5,354.214286 L382.5,354.214286 Z" id="Shape" fill="#CFCCE0"></path>
                    <circle id="Oval" fill="#DBBAF4" cx="164" cy="409" r="8"></circle>
                    <path d="M161.5,413 C156.80558,413 153,409.19442 153,404.5 C153,399.80558 156.80558,396 161.5,396 C166.19442,396 170,399.80558 170,404.5 C169.99474,409.19224 166.19224,412.99474 161.5,413 L161.5,413 Z M161.5,397.214286 C157.476211,397.214286 154.214286,400.476211 154.214286,404.5 C154.214286,408.523789 157.476211,411.785714 161.5,411.785714 C165.523789,411.785714 168.785714,408.523789 168.785714,404.5 C168.781221,400.478074 165.521926,397.218779 161.5,397.214286 Z" id="Shape" fill="#CFCCE0"></path>
                    <circle id="Oval" fill="#CFCCE0" cx="66" cy="327" r="8"></circle>
                    <path d="M75.2592593,400 C75.2592593,400 67.3888889,381.142857 91,367 L75.2592593,400 Z" id="Path" fill="#AEF4D0"></path>
                    <path d="M66,400 C66,400 62.4530259,379.828216 35,380.001105 L66,400 Z" id="Path" fill="#AEF4D0"></path>
                    <rect id="Rectangle" fill="#CFCCE0" x="0" y="399" width="125" height="1"></rect>
                </g>
            </g>
        </g>
    </g>
</svg>