<?xml version="1.0" encoding="UTF-8"?>
<svg width="620px" height="393px" viewBox="0 0 620 393" version="1.1" xmlns="http://www.w3.org/2000/svg" xmlns:xlink="http://www.w3.org/1999/xlink">
    <!-- Generator: Sketch 61 (89581) - https://sketch.com -->
    <title>undraw_body_text_l3ld@2x</title>
    <desc>Created with Sketch.</desc>
    <g id="Page-1" stroke="none" stroke-width="1" fill="none" fill-rule="evenodd">
        <g id="Homepage" transform="translate(-656.000000, -2250.000000)" fill-rule="nonzero">
            <g id="04" transform="translate(120.000000, 2250.000000)">
                <g id="undraw_body_text_l3ld" transform="translate(536.000000, 0.000000)">
                    <rect id="Rectangle" fill="#3F3D56" x="0" y="313.553831" width="620" height="1"></rect>
                    <rect id="Rectangle" fill="#DBBAF4" x="331" y="135.553831" width="231" height="221"></rect>
                    <rect id="Rectangle" fill="#3F3D56" x="314" y="356.553831" width="286" height="1"></rect>
                    <rect id="Rectangle" fill="#F2F2F2" x="401" y="217.553831" width="66" height="77"></rect>
                    <path d="M493,295.553831 L400,295.553831 L400,202.553831 L493,202.553831 L493,295.553831 Z M401.291667,294.262164 L491.708333,294.262164 L491.708333,203.845499 L401.291667,203.845499 L401.291667,294.262164 Z" id="Shape" fill="#3F3D56"></path>
                    <rect id="Rectangle" fill="#3F3D56" x="419" y="229.553831" width="57" height="1"></rect>
                    <rect id="Rectangle" fill="#3F3D56" x="419" y="244.553831" width="57" height="1"></rect>
                    <rect id="Rectangle" fill="#3F3D56" x="419" y="258.553831" width="57" height="1"></rect>
                    <rect id="Rectangle" fill="#3F3D56" x="265" y="45.5538312" width="275" height="1"></rect>
                    <rect id="Rectangle" fill="#3F3D56" x="58" y="243.553831" width="151" height="1"></rect>
                    <rect id="Rectangle" fill="#DBBAF4" x="8" y="95.5538312" width="217" height="134"></rect>
                    <rect id="Rectangle" fill="#F2F2F2" x="36" y="136.553831" width="134" height="66"></rect>
                    <path d="M197,203.553831 L36,203.553831 L36,122.553831 L197,122.553831 L197,203.553831 Z M37.2014925,202.344876 L195.798507,202.344876 L195.798507,123.762786 L37.2014925,123.762786 L37.2014925,202.344876 Z" id="Shape" fill="#3F3D56"></path>
                    <rect id="Rectangle" fill="#3F3D56" x="60" y="156.553831" width="87" height="1"></rect>
                    <rect id="Rectangle" fill="#3F3D56" x="60" y="169.553831" width="87" height="1"></rect>
                    <rect id="Rectangle" fill="#3F3D56" x="60" y="181.553831" width="87" height="1"></rect>
                    <path d="M280.969315,92.938595 C273.97524,81.1478042 260.13801,80.5983082 260.13801,80.5983082 C260.13801,80.5983082 246.654422,78.8779887 238.004786,96.835496 C229.942633,113.573356 218.815833,129.734108 236.213464,133.652333 L239.355978,123.893806 L241.30212,134.378841 C243.779207,134.556597 246.264189,134.59897 248.745918,134.505772 C267.377371,133.905613 285.121015,134.681358 284.549693,128.010915 C283.790221,119.143485 287.699028,104.283675 280.969315,92.938595 Z" id="Path" fill="#8D5B13"></path>
                    <path d="M256,115.393337 C256,115.393337 264.877551,128.097041 259.55102,138.380992 C254.22449,148.664942 271.979592,159.553831 271.979592,159.553831 L285,130.516794 C285,130.516794 269.612245,120.232844 273.755102,110.553831 L256,115.393337 Z" id="Path" fill="#FBBEBE"></path>
                    <circle id="Oval" fill="#FBBEBE" cx="261.5" cy="105.053831" r="15.5"></circle>
                    <path d="M208,123.317007 L221.195418,106.410145 C221.195418,106.410145 225.841629,88.6884668 232.570909,89.5868709 C239.30019,90.485275 229.912999,110.839631 229.912999,110.839631 L216.801723,129.553831 L208,123.317007 Z" id="Path" fill="#FBBEBE"></path>
                    <polygon id="Path" fill="#FBBEBE" points="274 347.326559 278.136364 369.190195 287 371.553831 284.636364 345.553831"></polygon>
                    <polygon id="Path" fill="#FBBEBE" points="365 323.353831 381.085106 345.553831 387.638298 348.553831 393 339.553831 376.914894 318.553831"></polygon>
                    <path d="M269.826906,149.76433 L259.71792,136.473148 C259.71792,136.473148 240.132201,140.080114 238.314158,141.895904 C236.496115,143.711695 243.162273,177.001189 243.162273,177.001189 C243.162273,177.001189 244.374302,186.080142 249.828431,190.92225 L255.282561,194.553831 L300.127626,185.474878 L301.813837,165.546092 C303.055745,150.868308 298.042901,136.347956 288.007356,125.553831 L288.007356,125.553831 L280.204436,126.619228 L269.826906,149.76433 Z" id="Path" fill="#C93B1B"></path>
                    <path d="M241.354677,143.166857 L238.316909,141.957174 L224.343172,140.747491 C224.343172,140.747491 219.482742,139.537808 220.69785,137.118442 C221.912957,134.699076 223.128065,134.094235 220.69785,133.489393 C218.267635,132.884552 217.660081,132.27971 218.267635,130.465186 C218.875188,128.650661 222.520511,125.021612 222.520511,125.021612 L212.192097,116.553831 C212.192097,116.553831 211.633087,116.947468 210.729533,117.675758 C205.601518,121.809099 189.375719,136.721872 201.256129,151.634638 C215.229866,169.175042 231.633817,179.457347 245,175.828298 L241.354677,143.166857 Z" id="Path" fill="#C93B1B"></path>
                    <path d="M254.973158,190.576332 L254.973158,199.007834 C254.973158,199.007834 249.565249,209.246086 251.367885,218.882087 C253.170521,228.518089 253.7714,233.33609 253.7714,233.33609 C253.967525,241.531342 255.385252,249.65113 257.977552,257.426094 C262.183704,269.471097 248.363491,348.365861 265.788977,349.570361 C283.214462,350.774861 292.828523,351.979361 298.236432,345.95686 C303.644342,339.934359 289.22325,236.347341 289.22325,236.347341 C289.22325,236.347341 338.495313,339.332109 348.710253,335.116358 C358.925193,330.900608 384.762982,321.264606 381.758588,315.844355 C378.754194,310.424104 303.043463,189.974082 303.043463,189.974082 L300.639948,184.553831 L254.973158,190.576332 Z" id="Path" fill="#242424"></path>
                    <path d="M283.884488,365.603672 C283.884488,365.603672 274.39714,364.99312 274.39714,368.045883 C274.39714,371.098647 269.653465,381.478044 269.653465,381.478044 C269.653465,381.478044 266.09571,393.689099 275.583058,392.467994 C285.070407,391.246888 291,380.256939 291,380.256939 L288.628163,368.656436 L283.884488,365.603672 Z" id="Path" fill="#8D2813"></path>
                    <path d="M383.865726,344.585632 C383.865726,344.585632 375.42813,339.183688 376.030815,342.784984 C376.633501,346.38628 377.236186,355.989736 381.454984,356.589953 C385.673783,357.190169 398.330178,360.791465 398.932863,361.991897 C399.535549,363.192329 414,367.994057 414,360.191249 C414,352.38844 404.959718,346.38628 404.959718,346.38628 L394.714065,338.583472 C394.714065,338.583472 388.084525,337.983255 386.879154,342.184768 C385.673783,346.38628 383.865726,344.585632 383.865726,344.585632 Z" id="Path" fill="#8D2813"></path>
                    <circle id="Oval" fill="#8D5B13" cx="262" cy="80.5538312" r="10"></circle>
                    <path d="M251.101486,78.5538312 C251.101999,73.4387891 254.941169,69.1486507 260,68.6100504 C259.652251,68.5730043 259.302814,68.55424 258.953119,68.5538312 C255.398132,68.5510602 252.112008,70.456442 250.333718,73.5515911 C248.555427,76.6467402 248.555427,80.4609222 250.333718,83.5560714 C252.112008,86.6512205 255.398132,88.5566022 258.953119,88.5538312 C259.302814,88.5534225 259.652251,88.5346582 260,88.4976121 C254.941168,87.9590089 251.101999,83.6688686 251.101486,78.5538312 Z" id="Path" fill="#8D5B13"></path>
                    <polygon id="Path" fill="#8D5B13" points="278.351067 91.6504898 264.719267 84.5538312 245.8948 87.456874 242 104.553831 251.695541 104.18356 254.403634 97.9020948 254.403634 104.080243 258.877066 103.908843 261.474 93.9085447 263.096934 104.553831 279 104.231337"></polygon>
                    <path d="M277,192.169897 L255.974726,192.727981 C255.974726,192.727981 238.034271,196.155272 239.040824,189.045982 C240.047377,181.936692 257.549517,184.42321 257.549517,184.42321 L276.70766,181.553831 L277,192.169897 Z" id="Path" fill="#FBBEBE"></path>
                    <path d="M293.376084,124.604647 C295.56506,124.274889 297.669779,125.578861 298.338267,127.678951 C302.465137,140.618844 315.178868,183.921301 302.546993,189.862171 C287.66888,196.859474 276.811408,196.551821 276.811408,196.551821 L271,182.314581 L276.29034,177.374407 L281.93851,141.238525 L284.644982,125.920669 L293.376084,124.604647 Z" id="Path" fill="#C93B1B"></path>
                    <polygon id="Path" fill="#000000" opacity="0.4" points="290 148.553831 287.641026 172.553831 267 181.553831 290 176.153831"></polygon>
                    <path d="M156.964582,292.984269 C153.535873,305.686819 141.791776,313.553831 141.791776,313.553831 C141.791776,313.553831 135.606709,300.825937 139.035418,288.123387 C142.464127,275.420837 154.208224,267.553831 154.208224,267.553831 C154.208224,267.553831 160.393291,280.281719 156.964582,292.984269 Z" id="Path" fill="#AEF4D0"></path>
                    <path d="M126.035418,292.984269 C129.464127,305.686819 141.208224,313.553831 141.208224,313.553831 C141.208224,313.553831 147.393291,300.825937 143.964582,288.123387 C140.535873,275.420837 128.791776,267.553831 128.791776,267.553831 C128.791776,267.553831 122.606709,280.281719 126.035418,292.984269 Z" id="Path" fill="#AEF4D0"></path>
                    <path d="M131.46438,290.432791 C140.853219,299.545495 142,313.553831 142,313.553831 C142,313.553831 127.924484,312.787569 118.53562,303.674871 C109.146757,294.562173 108,280.553831 108,280.553831 C108,280.553831 122.07554,281.320094 131.46438,290.432791 Z" id="Path" fill="#3F3D56"></path>
                    <path d="M152.535616,290.432791 C143.146775,299.545495 142,313.553831 142,313.553831 C142,313.553831 156.075519,312.787569 165.464378,303.674871 C174.853237,294.562173 176,280.553831 176,280.553831 C176,280.553831 161.924481,281.320094 152.535616,290.432791 Z" id="Path" fill="#3F3D56"></path>
                    <path d="M414.964582,25.9842692 C411.535873,38.6868192 399.791776,46.5538312 399.791776,46.5538312 C399.791776,46.5538312 393.606709,33.8259372 397.035418,21.1233872 C400.464127,8.42083726 412.208224,0.553831232 412.208224,0.553831232 C412.208224,0.553831232 418.393291,13.2817193 414.964582,25.9842692 Z" id="Path" fill="#AEF4D0"></path>
                    <path d="M384.035418,25.9842692 C387.464127,38.6868192 399.208224,46.5538312 399.208224,46.5538312 C399.208224,46.5538312 405.393291,33.8259372 401.964582,21.1233872 C398.535873,8.42083726 386.791776,0.553831232 386.791776,0.553831232 C386.791776,0.553831232 380.606709,13.2817193 384.035418,25.9842692 Z" id="Path" fill="#AEF4D0"></path>
                    <path d="M389.46438,23.4327913 C398.853219,32.5454951 400,46.5538312 400,46.5538312 C400,46.5538312 385.924484,45.7875689 376.53559,36.6748711 C367.146697,27.5621734 366,13.5538312 366,13.5538312 C366,13.5538312 380.07554,14.3200936 389.46438,23.4327913 Z" id="Path" fill="#3F3D56"></path>
                    <path d="M410.535616,23.4327913 C401.146775,32.5454951 400,46.5538312 400,46.5538312 C400,46.5538312 414.075519,45.7875689 423.464378,36.6748711 C432.853237,27.5621734 434,13.5538312 434,13.5538312 C434,13.5538312 419.924481,14.3200936 410.535616,23.4327913 Z" id="Path" fill="#3F3D56"></path>
                </g>
            </g>
        </g>
    </g>
</svg>