<?xml version="1.0" standalone="no"?>
<!DOCTYPE svg PUBLIC "-//W3C//DTD SVG 20010904//EN"
 "http://www.w3.org/TR/2001/REC-SVG-20010904/DTD/svg10.dtd">
<svg version="1.0" xmlns="http://www.w3.org/2000/svg"
 width="475.000000pt" height="475.000000pt" viewBox="0 0 475.000000 475.000000"
 preserveAspectRatio="xMidYMid meet">
<metadata>
Created by potrace 1.11, written by Peter Selinger 2001-2013
</metadata>
<g transform="translate(0.000000,475.000000) scale(0.100000,-0.100000)"
fill="#000000" stroke="none">
<path d="M1100 3455 c0 -30 4 -35 28 -40 126 -25 215 -74 247 -135 8 -15 206
-493 441 -1061 510 -1239 471 -1148 501 -1155 41 -11 152 1 169 17 12 13 595
1570 725 1939 95 269 195 381 354 397 56 6 56 6 53 37 l-3 31 -437 3 -438 2 0
-34 c0 -39 -6 -36 135 -57 125 -18 185 -71 185 -162 0 -22 -117 -353 -300
-848 -165 -447 -302 -814 -304 -817 -3 -2 -9 -1 -14 2 -5 3 -157 364 -337 803
-242 587 -330 811 -333 848 -8 102 61 153 241 181 l108 17 -3 31 -3 31 -507 3
-508 2 0 -35z"/>
</g>
</svg>
